PathFileType	4	(X/Y/Z)	Walk1.trc
DataRate	CameraRate	NumFrames	NumMarkers	Units	OrigDataRate	OrigDataStartFrame	OrigNumFrames
200.000000	200.000000	6	59	mm	200.000000	392	584
Frame#	Times		LFHD		RFHD		LBHD		RBHD		C7		T10		CLAV		STRN		RBack		LASI		RACR1		RUA1		RElbow		RFA1		RWRR		RWRU		RCAR		LACR1		LUA1		LElbow		LFA1		LWRU		LCAR		RTH1		RTH3		RTB1		RTB3		RTB4		LTH3		LTH2		LTH4		LLFC		LTB2		LTB4		LToe		RTH2		LMMAL		RTH4		LTH1		LTB1		RTB2		LCAL		LMT1		LTB3		LMT5		RElbowM		LWRR		LLMAL		RLFC		RPSI		LPSI		LElbowM		RASI		RMT1		RToe		RCAL		RMMAL		RLMAL		RMT5
			X1	Y1	Z1	X2	Y2	Z2	X3	Y3	Z3	X4	Y4	Z4	X5	Y5	Z5	X6	Y6	Z6	X7	Y7	Z7	X8	Y8	Z8	X9	Y9	Z9	X10	Y10	Z10	X11	Y11	Z11	X12	Y12	Z12	X13	Y13	Z13	X14	Y14	Z14	X15	Y15	Z15	X16	Y16	Z16	X17	Y17	Z17	X18	Y18	Z18	X19	Y19	Z19	X20	Y20	Z20	X21	Y21	Z21	X22	Y22	Z22	X23	Y23	Z23	X24	Y24	Z24	X25	Y25	Z25	X26	Y26	Z26	X27	Y27	Z27	X28	Y28	Z28	X29	Y29	Z29	X30	Y30	Z30	X31	Y31	Z31	X32	Y32	Z32	X33	Y33	Z33	X34	Y34	Z34	X35	Y35	Z35	X36	Y36	Z36	X37	Y37	Z37	X38	Y38	Z38	X39	Y39	Z39	X40	Y40	Z40	X41	Y41	Z41	X42	Y42	Z42	X43	Y43	Z43	X44	Y44	Z44	X45	Y45	Z45	X46	Y46	Z46	X47	Y47	Z47	X48	Y48	Z48	X49	Y49	Z49	X50	Y50	Z50	X51	Y51	Z51	X52	Y52	Z52	X53	Y53	Z53	X54	Y54	Z54	X55	Y55	Z55	X56	Y56	Z56	X57	Y57	Z57	X58	Y58	Z58	X59	Y59	Z59

392	1.96	-101.67	1435.3	-36.426	-114.74	1422.8	58.859	-229.42	1361.8	-72.601	-245.89	1352.8	59.183	-276.84	1273.7	-8.3962	-368.98	1077.8	1.2183	-137.19	1186.5	-5.1804	-88.317	1078.7	4.9167	-330.32	1155	109.5	-177.86	816.51	-161.52	-211.32	1218.3	172.56	-210.07	1078.1	257.21	-220.92	953.1	293.89	-148.31	843.22	299.33	-118.03	748.96	260.49	-152.99	743.11	323.96	-98.355	694.82	313.15	-211.42	1216.3	-193.69	-199.94	1060.1	-273.03	-229.7	945.93	-303.9	-154.93	863.88	-335.91	-141.63	756.91	-366.37	-91.49	720.8	-368.97	-189.73	646.99	213.45	-118.39	496.03	163.59	-95.088	305.25	100.27	-159.24	148.96	83.233	-131.58	227.33	91.642	-256.87	480.64	-157.03	-197.71	570.12	-161.9	-251.24	563.44	-185.95	-242.24	386.15	-118.12	-288.74	204.47	-102.84	-273.95	203.89	-42.274	-188.13	27.994	-25.386	-107.06	600.59	172.4	-341.85	74.107	9.8453	-156.16	569.92	191.95	-245.72	647.51	-207	-243.68	286.04	-48.389	-164.63	236.35	142.12	-407.78	49.68	-27.07	-243.39	32.669	-2.2234	-296.94	123.53	-36.471	-283.14	20.106	-89.976	-270.64	916.94	222.49	-101.25	762.88	-318.99	-360.76	60.104	-69.327	-121.5	414.27	148.27	-416.78	852.11	62.883	-426.79	857.88	-42.116	-255.67	913.88	-238.65	-158.42	830.41	166.86	-120.58	49.486	50.797	-74.476	50.52	88.458	-281.77	83.836	69.006	-206.45	106.15	35.897	-223	97.423	117.41	-148.29	40.08	134.87
393	1.965	-96.05	1434.9	-36.248	-109.17	1422.4	59.033	-223.79	1361.4	-72.467	-240.34	1352.5	59.314	-271.25	1273.3	-8.3098	-363.42	1077.4	1.2226	-131.69	1186.1	-4.9395	-82.887	1078.2	5.1238	-324.97	1154.7	109.46	-172.62	815.79	-161.05	-206	1217.9	172.71	-204.92	1077.8	257.4	-216.03	952.96	294.4	-143.48	843.08	300.28	-113.1	748.75	261.65	-148.22	743.03	325.03	-93.604	694.67	314.44	-205.64	1216	-193.53	-193.89	1059.8	-272.9	-223.18	945.48	-303.81	-147.42	864.05	-335.42	-132.72	757.22	-365.43	-82.148	721.71	-367.73	-184.27	646.54	213.97	-112.81	495.96	163.11	-85.372	305.95	100.19	-142.8	147.22	83.427	-118.54	226.63	91.717	-253.41	480.28	-156.83	-193.75	569.38	-161.62	-247.28	563.06	-185.73	-239.45	385.57	-117.95	-287.41	204.19	-102.64	-272.65	203.48	-42.052	-188.03	27.938	-25.458	-101.53	600.44	172.72	-341.56	74.267	10.047	-150.6	569.62	191.97	-241.29	647.11	-206.69	-241.73	285.39	-48.171	-151.85	234.3	142.21	-407.63	50.206	-26.854	-243.32	32.644	-2.162	-296.24	123.3	-36.31	-283.17	20.145	-89.856	-265.57	916.68	222.96	-92.584	763.78	-317.92	-360.54	60.347	-69.163	-115.49	414.06	147.95	-411.14	851.82	63.508	-421.55	857.77	-41.432	-249	913.23	-238.58	-153.25	830.29	167.28	-99.923	49.636	51.185	-53.948	52.694	88.829	-262.45	76.963	69.326	-188.09	102.47	36.13	-204.25	93.052	117.69	-127.22	39.119	135.34
394	1.97	-90.43	1434.5	-36.045	-103.6	1422	59.232	-218.17	1361	-72.305	-234.78	1352.1	59.474	-265.66	1273	-8.1882	-357.85	1077.1	1.2643	-126.18	1185.6	-4.6901	-77.451	1077.8	5.2406	-319.59	1154.3	109.46	-167.35	815.06	-160.57	-200.67	1217.5	172.89	-199.76	1077.4	257.61	-211.11	952.78	294.92	-138.61	842.9	301.23	-108.11	748.52	262.8	-143.41	742.91	326.08	-88.796	694.5	315.74	-199.88	1215.6	-193.34	-187.83	1059.5	-272.75	-216.7	945	-303.7	-139.96	864.19	-334.89	-123.88	757.51	-364.43	-72.88	722.62	-366.44	-178.88	646.03	214.53	-107.48	495.71	162.7	-75.911	306.67	100.11	-126.45	145.74	83.605	-105.66	226.06	91.783	-249.93	479.91	-156.63	-189.78	568.64	-161.37	-243.32	562.66	-185.52	-236.63	384.99	-117.78	-286.07	203.91	-102.44	-271.31	203.07	-41.835	-187.93	27.881	-25.539	-96.123	600.09	173.11	-341.25	74.455	10.267	-145.2	569.21	192.05	-236.87	646.71	-206.38	-239.74	284.74	-47.961	-139.17	232.36	142.29	-407.47	50.771	-26.616	-243.24	32.62	-2.1005	-295.52	123.08	-36.145	-283.2	20.185	-89.723	-260.48	916.37	223.45	-83.994	764.67	-316.79	-360.31	60.62	-68.984	-109.77	413.7	147.69	-405.46	851.53	64.194	-416.28	857.68	-40.698	-242.37	912.59	-238.48	-147.98	830.12	167.68	-79.41	50.181	51.52	-33.65	55.254	89.137	-243	70.412	69.632	-169.74	99.108	36.341	-185.44	88.99	117.93	-106.23	38.54	135.76
395	1.975	-84.807	1434.1	-35.816	-98.018	1421.6	59.457	-212.54	1360.6	-72.114	-229.21	1351.7	59.667	-260.08	1272.6	-8.03	-352.27	1076.7	1.3467	-120.66	1185.2	-4.4319	-72.004	1077.3	5.2736	-314.19	1153.9	109.5	-162.05	814.33	-160.08	-195.32	1217	173.09	-194.59	1077	257.85	-206.15	952.56	295.44	-133.7	842.69	302.19	-103.06	748.25	263.96	-138.56	742.74	327.13	-83.931	694.3	317.03	-194.13	1215.2	-193.13	-181.76	1059.3	-272.58	-210.26	944.51	-303.55	-132.56	864.32	-334.33	-115.1	757.8	-363.38	-63.691	723.52	-365.08	-173.54	645.44	215.11	-102.41	495.3	162.38	-66.712	307.39	100.03	-110.24	144.51	83.761	-92.965	225.62	91.837	-246.43	479.53	-156.41	-185.8	567.89	-161.14	-239.36	562.26	-185.29	-233.77	384.41	-117.6	-284.71	203.65	-102.22	-269.94	202.67	-41.622	-187.82	27.823	-25.63	-90.824	599.55	173.56	-340.93	74.672	10.502	-139.95	568.67	192.18	-232.46	646.3	-206.07	-237.7	284.1	-47.76	-126.62	230.53	142.36	-407.3	51.378	-26.355	-243.15	32.598	-2.0407	-294.79	122.88	-35.975	-283.24	20.225	-89.577	-255.34	916.02	223.95	-75.481	765.56	-315.62	-360.08	60.925	-68.791	-104.31	413.18	147.47	-399.74	851.23	64.933	-410.97	857.6	-39.918	-235.79	911.94	-238.36	-142.62	829.9	168.06	-59.118	51.123	51.789	-13.649	58.191	89.36	-223.5	64.225	69.92	-151.46	96.081	36.525	-166.66	85.266	118.14	-85.388	38.35	136.11
396	1.98	-79.183	1433.6	-35.56	-92.431	1421.1	59.709	-206.92	1360.2	-71.89	-223.64	1351.2	59.894	-254.49	1272.1	-7.8341	-346.68	1076.2	1.4733	-115.12	1184.7	-4.1641	-66.543	1076.7	5.2309	-308.77	1153.4	109.59	-156.71	813.6	-159.58	-189.95	1216.5	173.33	-189.4	1076.6	258.1	-201.16	952.3	295.97	-128.74	842.44	303.16	-97.955	747.97	265.11	-133.66	742.54	328.16	-79.007	694.07	318.32	-188.4	1214.8	-192.9	-175.68	1059	-272.38	-203.84	944.01	-303.38	-125.21	864.43	-333.73	-106.41	758.08	-362.28	-54.588	724.42	-363.66	-168.26	644.78	215.71	-97.584	494.72	162.14	-57.781	308.12	99.947	-94.23	143.55	83.89	-80.489	225.32	91.875	-242.9	479.16	-156.2	-181.8	567.15	-160.93	-235.39	561.86	-185.07	-230.87	383.83	-117.43	-283.34	203.41	-102	-268.53	202.28	-41.413	-187.7	27.763	-25.731	-85.636	598.82	174.07	-340.58	74.918	10.751	-134.87	568.02	192.37	-228.06	645.89	-205.76	-235.61	283.45	-47.568	-114.23	228.84	142.43	-407.12	52.031	-26.072	-243.04	32.577	-1.9833	-294.03	122.7	-35.801	-283.28	20.266	-89.418	-250.18	915.64	224.45	-67.05	766.43	-314.39	-359.85	61.266	-68.585	-99.116	412.52	147.3	-393.97	850.93	65.718	-405.61	857.55	-39.1	-229.26	911.3	-238.23	-137.17	829.64	168.41	-39.126	52.453	51.979	5.9834	61.484	89.485	-204.02	58.441	70.183	-133.33	93.414	36.68	-147.97	81.904	118.31	-64.763	38.544	136.38
397	1.985	-73.558	1433.1	-35.275	-86.836	1420.6	59.99	-201.3	1359.7	-71.633	-218.07	1350.8	60.156	-248.91	1271.7	-7.5996	-341.08	1075.7	1.6471	-109.58	1184.2	-3.8857	-61.065	1076.2	5.1227	-303.32	1152.9	109.72	-151.33	812.88	-159.09	-184.56	1216	173.6	-184.21	1076.1	258.38	-196.12	952	296.5	-123.75	842.16	304.12	-92.797	747.65	266.25	-128.71	742.29	329.17	-74.024	693.82	319.59	-182.7	1214.4	-192.64	-169.59	1058.7	-272.14	-197.46	943.5	-303.18	-117.91	864.53	-333.1	-97.786	758.36	-361.12	-45.573	725.32	-362.19	-163.04	644.06	216.32	-92.993	493.98	162.02	-49.119	308.86	99.855	-78.471	142.87	83.99	-68.26	225.16	91.893	-239.34	478.79	-155.98	-177.78	566.41	-160.74	-231.41	561.45	-184.84	-227.93	383.25	-117.26	-281.95	203.18	-101.78	-267.09	201.9	-41.209	-187.58	27.702	-25.841	-80.556	597.9	174.65	-340.22	75.193	11.009	-129.95	567.27	192.63	-223.66	645.47	-205.44	-233.48	282.81	-47.385	-102.03	227.29	142.49	-406.93	52.734	-25.768	-242.92	32.559	-1.9287	-293.26	122.54	-35.625	-283.33	20.306	-89.245	-244.98	915.22	224.96	-58.706	767.3	-313.1	-359.61	61.646	-68.366	-94.162	411.72	147.18	-388.17	850.63	66.544	-400.22	857.5	-38.248	-222.78	910.67	-238.07	-131.61	829.31	168.73	-19.516	54.15	52.085	25.174	65.096	89.501	-184.67	53.092	70.419	-115.42	91.117	36.801	-129.45	78.919	118.44	-44.442	39.108	136.57
